<mxfile host="app.diagrams.net" modified="2023-12-29T08:08:16.349Z" agent="Mozilla/5.0 (Windows NT 10.0; Win64; x64) AppleWebKit/537.36 (KHTML, like Gecko) Chrome/120.0.0.0 Safari/537.36" etag="qmhg-a1FRD-FKakbD9ZF" version="22.1.15" type="device">
  <diagram id="R2lEEEUBdFMjLlhIrx00" name="Page-1">
    <mxGraphModel dx="3200" dy="806" grid="1" gridSize="10" guides="1" tooltips="1" connect="1" arrows="1" fold="1" page="1" pageScale="1" pageWidth="850" pageHeight="1100" math="0" shadow="0" extFonts="Permanent Marker^https://fonts.googleapis.com/css?family=Permanent+Marker">
      <root>
        <mxCell id="0" />
        <mxCell id="1" parent="0" />
        <mxCell id="C-vyLk0tnHw3VtMMgP7b-23" value="부서" style="shape=table;startSize=30;container=1;collapsible=1;childLayout=tableLayout;fixedRows=1;rowLines=0;fontStyle=1;align=center;resizeLast=1;" parent="1" vertex="1">
          <mxGeometry x="-590" y="190" width="130" height="100" as="geometry" />
        </mxCell>
        <mxCell id="C-vyLk0tnHw3VtMMgP7b-24" value="" style="shape=partialRectangle;collapsible=0;dropTarget=0;pointerEvents=0;fillColor=none;points=[[0,0.5],[1,0.5]];portConstraint=eastwest;top=0;left=0;right=0;bottom=1;" parent="C-vyLk0tnHw3VtMMgP7b-23" vertex="1">
          <mxGeometry y="30" width="130" height="30" as="geometry" />
        </mxCell>
        <mxCell id="C-vyLk0tnHw3VtMMgP7b-25" value="PK" style="shape=partialRectangle;overflow=hidden;connectable=0;fillColor=none;top=0;left=0;bottom=0;right=0;fontStyle=1;" parent="C-vyLk0tnHw3VtMMgP7b-24" vertex="1">
          <mxGeometry width="30" height="30" as="geometry">
            <mxRectangle width="30" height="30" as="alternateBounds" />
          </mxGeometry>
        </mxCell>
        <mxCell id="C-vyLk0tnHw3VtMMgP7b-26" value="부서번호" style="shape=partialRectangle;overflow=hidden;connectable=0;fillColor=none;top=0;left=0;bottom=0;right=0;align=left;spacingLeft=6;fontStyle=5;" parent="C-vyLk0tnHw3VtMMgP7b-24" vertex="1">
          <mxGeometry x="30" width="100" height="30" as="geometry">
            <mxRectangle width="100" height="30" as="alternateBounds" />
          </mxGeometry>
        </mxCell>
        <mxCell id="C-vyLk0tnHw3VtMMgP7b-27" value="" style="shape=partialRectangle;collapsible=0;dropTarget=0;pointerEvents=0;fillColor=none;points=[[0,0.5],[1,0.5]];portConstraint=eastwest;top=0;left=0;right=0;bottom=0;" parent="C-vyLk0tnHw3VtMMgP7b-23" vertex="1">
          <mxGeometry y="60" width="130" height="30" as="geometry" />
        </mxCell>
        <mxCell id="C-vyLk0tnHw3VtMMgP7b-28" value="" style="shape=partialRectangle;overflow=hidden;connectable=0;fillColor=none;top=0;left=0;bottom=0;right=0;" parent="C-vyLk0tnHw3VtMMgP7b-27" vertex="1">
          <mxGeometry width="30" height="30" as="geometry">
            <mxRectangle width="30" height="30" as="alternateBounds" />
          </mxGeometry>
        </mxCell>
        <mxCell id="C-vyLk0tnHw3VtMMgP7b-29" value="부서이름" style="shape=partialRectangle;overflow=hidden;connectable=0;fillColor=none;top=0;left=0;bottom=0;right=0;align=left;spacingLeft=6;" parent="C-vyLk0tnHw3VtMMgP7b-27" vertex="1">
          <mxGeometry x="30" width="100" height="30" as="geometry">
            <mxRectangle width="100" height="30" as="alternateBounds" />
          </mxGeometry>
        </mxCell>
        <mxCell id="OE8cqUYUXqUJQJ2_gMQX-29" value="" style="edgeStyle=entityRelationEdgeStyle;fontSize=12;html=1;endArrow=ERzeroToMany;endFill=1;rounded=0;entryX=0;entryY=0.5;entryDx=0;entryDy=0;exitX=1;exitY=0.5;exitDx=0;exitDy=0;" edge="1" parent="1" source="OE8cqUYUXqUJQJ2_gMQX-37" target="OE8cqUYUXqUJQJ2_gMQX-19">
          <mxGeometry width="100" height="100" relative="1" as="geometry">
            <mxPoint x="89.99999999999977" y="275" as="sourcePoint" />
            <mxPoint x="110" y="20" as="targetPoint" />
            <Array as="points">
              <mxPoint x="-20" y="270" />
              <mxPoint x="290" y="90" />
              <mxPoint x="260" y="140" />
              <mxPoint x="260" y="150" />
              <mxPoint x="230" y="110" />
            </Array>
          </mxGeometry>
        </mxCell>
        <mxCell id="OE8cqUYUXqUJQJ2_gMQX-31" value="" style="edgeStyle=entityRelationEdgeStyle;fontSize=12;html=1;endArrow=ERzeroToMany;endFill=1;rounded=0;exitX=1;exitY=0.5;exitDx=0;exitDy=0;entryX=0;entryY=0.5;entryDx=0;entryDy=0;" edge="1" parent="1" source="C-vyLk0tnHw3VtMMgP7b-24" target="OE8cqUYUXqUJQJ2_gMQX-37">
          <mxGeometry width="100" height="100" relative="1" as="geometry">
            <mxPoint x="10" y="120" as="sourcePoint" />
            <mxPoint x="-160" y="275" as="targetPoint" />
            <Array as="points">
              <mxPoint x="-20" y="110" />
              <mxPoint x="-5" y="60" />
            </Array>
          </mxGeometry>
        </mxCell>
        <mxCell id="OE8cqUYUXqUJQJ2_gMQX-33" value="직원" style="shape=table;startSize=30;container=1;collapsible=1;childLayout=tableLayout;fixedRows=1;rowLines=0;fontStyle=1;align=center;resizeLast=1;html=1;" vertex="1" parent="1">
          <mxGeometry x="-310" y="160" width="110" height="150" as="geometry" />
        </mxCell>
        <mxCell id="OE8cqUYUXqUJQJ2_gMQX-34" value="" style="shape=tableRow;horizontal=0;startSize=0;swimlaneHead=0;swimlaneBody=0;fillColor=none;collapsible=0;dropTarget=0;points=[[0,0.5],[1,0.5]];portConstraint=eastwest;top=0;left=0;right=0;bottom=1;" vertex="1" parent="OE8cqUYUXqUJQJ2_gMQX-33">
          <mxGeometry y="30" width="110" height="30" as="geometry" />
        </mxCell>
        <mxCell id="OE8cqUYUXqUJQJ2_gMQX-35" value="PK" style="shape=partialRectangle;connectable=0;fillColor=none;top=0;left=0;bottom=0;right=0;fontStyle=1;overflow=hidden;whiteSpace=wrap;html=1;" vertex="1" parent="OE8cqUYUXqUJQJ2_gMQX-34">
          <mxGeometry width="30" height="30" as="geometry">
            <mxRectangle width="30" height="30" as="alternateBounds" />
          </mxGeometry>
        </mxCell>
        <mxCell id="OE8cqUYUXqUJQJ2_gMQX-36" value="직원번호" style="shape=partialRectangle;connectable=0;fillColor=none;top=0;left=0;bottom=0;right=0;align=left;spacingLeft=6;fontStyle=5;overflow=hidden;whiteSpace=wrap;html=1;" vertex="1" parent="OE8cqUYUXqUJQJ2_gMQX-34">
          <mxGeometry x="30" width="80" height="30" as="geometry">
            <mxRectangle width="80" height="30" as="alternateBounds" />
          </mxGeometry>
        </mxCell>
        <mxCell id="OE8cqUYUXqUJQJ2_gMQX-37" value="" style="shape=tableRow;horizontal=0;startSize=0;swimlaneHead=0;swimlaneBody=0;fillColor=none;collapsible=0;dropTarget=0;points=[[0,0.5],[1,0.5]];portConstraint=eastwest;top=0;left=0;right=0;bottom=0;" vertex="1" parent="OE8cqUYUXqUJQJ2_gMQX-33">
          <mxGeometry y="60" width="110" height="30" as="geometry" />
        </mxCell>
        <mxCell id="OE8cqUYUXqUJQJ2_gMQX-38" value="FK1" style="shape=partialRectangle;connectable=0;fillColor=none;top=0;left=0;bottom=0;right=0;editable=1;overflow=hidden;whiteSpace=wrap;html=1;" vertex="1" parent="OE8cqUYUXqUJQJ2_gMQX-37">
          <mxGeometry width="30" height="30" as="geometry">
            <mxRectangle width="30" height="30" as="alternateBounds" />
          </mxGeometry>
        </mxCell>
        <mxCell id="OE8cqUYUXqUJQJ2_gMQX-39" value="부서번호" style="shape=partialRectangle;connectable=0;fillColor=none;top=0;left=0;bottom=0;right=0;align=left;spacingLeft=6;overflow=hidden;whiteSpace=wrap;html=1;" vertex="1" parent="OE8cqUYUXqUJQJ2_gMQX-37">
          <mxGeometry x="30" width="80" height="30" as="geometry">
            <mxRectangle width="80" height="30" as="alternateBounds" />
          </mxGeometry>
        </mxCell>
        <mxCell id="OE8cqUYUXqUJQJ2_gMQX-40" value="" style="shape=tableRow;horizontal=0;startSize=0;swimlaneHead=0;swimlaneBody=0;fillColor=none;collapsible=0;dropTarget=0;points=[[0,0.5],[1,0.5]];portConstraint=eastwest;top=0;left=0;right=0;bottom=0;" vertex="1" parent="OE8cqUYUXqUJQJ2_gMQX-33">
          <mxGeometry y="90" width="110" height="30" as="geometry" />
        </mxCell>
        <mxCell id="OE8cqUYUXqUJQJ2_gMQX-41" value="" style="shape=partialRectangle;connectable=0;fillColor=none;top=0;left=0;bottom=0;right=0;editable=1;overflow=hidden;whiteSpace=wrap;html=1;" vertex="1" parent="OE8cqUYUXqUJQJ2_gMQX-40">
          <mxGeometry width="30" height="30" as="geometry">
            <mxRectangle width="30" height="30" as="alternateBounds" />
          </mxGeometry>
        </mxCell>
        <mxCell id="OE8cqUYUXqUJQJ2_gMQX-42" value="직원이름" style="shape=partialRectangle;connectable=0;fillColor=none;top=0;left=0;bottom=0;right=0;align=left;spacingLeft=6;overflow=hidden;whiteSpace=wrap;html=1;" vertex="1" parent="OE8cqUYUXqUJQJ2_gMQX-40">
          <mxGeometry x="30" width="80" height="30" as="geometry">
            <mxRectangle width="80" height="30" as="alternateBounds" />
          </mxGeometry>
        </mxCell>
        <mxCell id="OE8cqUYUXqUJQJ2_gMQX-43" value="" style="shape=tableRow;horizontal=0;startSize=0;swimlaneHead=0;swimlaneBody=0;fillColor=none;collapsible=0;dropTarget=0;points=[[0,0.5],[1,0.5]];portConstraint=eastwest;top=0;left=0;right=0;bottom=0;" vertex="1" parent="OE8cqUYUXqUJQJ2_gMQX-33">
          <mxGeometry y="120" width="110" height="30" as="geometry" />
        </mxCell>
        <mxCell id="OE8cqUYUXqUJQJ2_gMQX-44" value="" style="shape=partialRectangle;connectable=0;fillColor=none;top=0;left=0;bottom=0;right=0;editable=1;overflow=hidden;whiteSpace=wrap;html=1;" vertex="1" parent="OE8cqUYUXqUJQJ2_gMQX-43">
          <mxGeometry width="30" height="30" as="geometry">
            <mxRectangle width="30" height="30" as="alternateBounds" />
          </mxGeometry>
        </mxCell>
        <mxCell id="OE8cqUYUXqUJQJ2_gMQX-45" value="직책" style="shape=partialRectangle;connectable=0;fillColor=none;top=0;left=0;bottom=0;right=0;align=left;spacingLeft=6;overflow=hidden;whiteSpace=wrap;html=1;" vertex="1" parent="OE8cqUYUXqUJQJ2_gMQX-43">
          <mxGeometry x="30" width="80" height="30" as="geometry">
            <mxRectangle width="80" height="30" as="alternateBounds" />
          </mxGeometry>
        </mxCell>
        <mxCell id="OE8cqUYUXqUJQJ2_gMQX-93" value="" style="group" vertex="1" connectable="0" parent="1">
          <mxGeometry x="-480" y="350" width="130" height="180" as="geometry" />
        </mxCell>
        <mxCell id="OE8cqUYUXqUJQJ2_gMQX-47" value="근무기록" style="shape=table;startSize=30;container=1;collapsible=1;childLayout=tableLayout;fixedRows=1;rowLines=0;fontStyle=1;align=center;resizeLast=1;html=1;" vertex="1" parent="OE8cqUYUXqUJQJ2_gMQX-93">
          <mxGeometry width="130" height="180" as="geometry" />
        </mxCell>
        <mxCell id="OE8cqUYUXqUJQJ2_gMQX-48" value="" style="shape=tableRow;horizontal=0;startSize=0;swimlaneHead=0;swimlaneBody=0;fillColor=none;collapsible=0;dropTarget=0;points=[[0,0.5],[1,0.5]];portConstraint=eastwest;top=0;left=0;right=0;bottom=1;" vertex="1" parent="OE8cqUYUXqUJQJ2_gMQX-47">
          <mxGeometry y="30" width="130" height="30" as="geometry" />
        </mxCell>
        <mxCell id="OE8cqUYUXqUJQJ2_gMQX-49" value="PK" style="shape=partialRectangle;connectable=0;fillColor=none;top=0;left=0;bottom=0;right=0;fontStyle=1;overflow=hidden;whiteSpace=wrap;html=1;" vertex="1" parent="OE8cqUYUXqUJQJ2_gMQX-48">
          <mxGeometry width="30" height="30" as="geometry">
            <mxRectangle width="30" height="30" as="alternateBounds" />
          </mxGeometry>
        </mxCell>
        <mxCell id="OE8cqUYUXqUJQJ2_gMQX-50" value="근무기록번호" style="shape=partialRectangle;connectable=0;fillColor=none;top=0;left=0;bottom=0;right=0;align=left;spacingLeft=6;fontStyle=5;overflow=hidden;whiteSpace=wrap;html=1;" vertex="1" parent="OE8cqUYUXqUJQJ2_gMQX-48">
          <mxGeometry x="30" width="100" height="30" as="geometry">
            <mxRectangle width="100" height="30" as="alternateBounds" />
          </mxGeometry>
        </mxCell>
        <mxCell id="OE8cqUYUXqUJQJ2_gMQX-51" value="" style="shape=tableRow;horizontal=0;startSize=0;swimlaneHead=0;swimlaneBody=0;fillColor=none;collapsible=0;dropTarget=0;points=[[0,0.5],[1,0.5]];portConstraint=eastwest;top=0;left=0;right=0;bottom=0;" vertex="1" parent="OE8cqUYUXqUJQJ2_gMQX-47">
          <mxGeometry y="60" width="130" height="30" as="geometry" />
        </mxCell>
        <mxCell id="OE8cqUYUXqUJQJ2_gMQX-52" value="FK1" style="shape=partialRectangle;connectable=0;fillColor=none;top=0;left=0;bottom=0;right=0;editable=1;overflow=hidden;whiteSpace=wrap;html=1;" vertex="1" parent="OE8cqUYUXqUJQJ2_gMQX-51">
          <mxGeometry width="30" height="30" as="geometry">
            <mxRectangle width="30" height="30" as="alternateBounds" />
          </mxGeometry>
        </mxCell>
        <mxCell id="OE8cqUYUXqUJQJ2_gMQX-53" value="직원번호" style="shape=partialRectangle;connectable=0;fillColor=none;top=0;left=0;bottom=0;right=0;align=left;spacingLeft=6;overflow=hidden;whiteSpace=wrap;html=1;" vertex="1" parent="OE8cqUYUXqUJQJ2_gMQX-51">
          <mxGeometry x="30" width="100" height="30" as="geometry">
            <mxRectangle width="100" height="30" as="alternateBounds" />
          </mxGeometry>
        </mxCell>
        <mxCell id="OE8cqUYUXqUJQJ2_gMQX-54" value="" style="shape=tableRow;horizontal=0;startSize=0;swimlaneHead=0;swimlaneBody=0;fillColor=none;collapsible=0;dropTarget=0;points=[[0,0.5],[1,0.5]];portConstraint=eastwest;top=0;left=0;right=0;bottom=0;" vertex="1" parent="OE8cqUYUXqUJQJ2_gMQX-47">
          <mxGeometry y="90" width="130" height="30" as="geometry" />
        </mxCell>
        <mxCell id="OE8cqUYUXqUJQJ2_gMQX-55" value="FK2" style="shape=partialRectangle;connectable=0;fillColor=none;top=0;left=0;bottom=0;right=0;editable=1;overflow=hidden;whiteSpace=wrap;html=1;" vertex="1" parent="OE8cqUYUXqUJQJ2_gMQX-54">
          <mxGeometry width="30" height="30" as="geometry">
            <mxRectangle width="30" height="30" as="alternateBounds" />
          </mxGeometry>
        </mxCell>
        <mxCell id="OE8cqUYUXqUJQJ2_gMQX-56" value="부서번호" style="shape=partialRectangle;connectable=0;fillColor=none;top=0;left=0;bottom=0;right=0;align=left;spacingLeft=6;overflow=hidden;whiteSpace=wrap;html=1;" vertex="1" parent="OE8cqUYUXqUJQJ2_gMQX-54">
          <mxGeometry x="30" width="100" height="30" as="geometry">
            <mxRectangle width="100" height="30" as="alternateBounds" />
          </mxGeometry>
        </mxCell>
        <mxCell id="OE8cqUYUXqUJQJ2_gMQX-57" value="" style="shape=tableRow;horizontal=0;startSize=0;swimlaneHead=0;swimlaneBody=0;fillColor=none;collapsible=0;dropTarget=0;points=[[0,0.5],[1,0.5]];portConstraint=eastwest;top=0;left=0;right=0;bottom=0;" vertex="1" parent="OE8cqUYUXqUJQJ2_gMQX-47">
          <mxGeometry y="120" width="130" height="30" as="geometry" />
        </mxCell>
        <mxCell id="OE8cqUYUXqUJQJ2_gMQX-58" value="" style="shape=partialRectangle;connectable=0;fillColor=none;top=0;left=0;bottom=0;right=0;editable=1;overflow=hidden;whiteSpace=wrap;html=1;" vertex="1" parent="OE8cqUYUXqUJQJ2_gMQX-57">
          <mxGeometry width="30" height="30" as="geometry">
            <mxRectangle width="30" height="30" as="alternateBounds" />
          </mxGeometry>
        </mxCell>
        <mxCell id="OE8cqUYUXqUJQJ2_gMQX-59" value="근무기간" style="shape=partialRectangle;connectable=0;fillColor=none;top=0;left=0;bottom=0;right=0;align=left;spacingLeft=6;overflow=hidden;whiteSpace=wrap;html=1;" vertex="1" parent="OE8cqUYUXqUJQJ2_gMQX-57">
          <mxGeometry x="30" width="100" height="30" as="geometry">
            <mxRectangle width="100" height="30" as="alternateBounds" />
          </mxGeometry>
        </mxCell>
        <mxCell id="OE8cqUYUXqUJQJ2_gMQX-91" value="" style="shape=partialRectangle;connectable=0;fillColor=none;top=0;left=0;bottom=0;right=0;editable=1;overflow=hidden;whiteSpace=wrap;html=1;" vertex="1" parent="OE8cqUYUXqUJQJ2_gMQX-93">
          <mxGeometry y="150" width="21.666666666666668" height="30" as="geometry">
            <mxRectangle width="30" height="30" as="alternateBounds" />
          </mxGeometry>
        </mxCell>
        <mxCell id="OE8cqUYUXqUJQJ2_gMQX-92" value="직책" style="shape=partialRectangle;connectable=0;fillColor=none;top=0;left=0;bottom=0;right=0;align=left;spacingLeft=6;overflow=hidden;whiteSpace=wrap;html=1;" vertex="1" parent="OE8cqUYUXqUJQJ2_gMQX-93">
          <mxGeometry x="30" y="150" width="100" height="30" as="geometry">
            <mxRectangle width="150" height="30" as="alternateBounds" />
          </mxGeometry>
        </mxCell>
        <mxCell id="OE8cqUYUXqUJQJ2_gMQX-95" value="" style="endArrow=none;html=1;rounded=0;entryX=0;entryY=0.5;entryDx=0;entryDy=0;exitX=1;exitY=0.5;exitDx=0;exitDy=0;" edge="1" parent="1" source="OE8cqUYUXqUJQJ2_gMQX-54" target="OE8cqUYUXqUJQJ2_gMQX-43">
          <mxGeometry relative="1" as="geometry">
            <mxPoint x="-180" y="130" as="sourcePoint" />
            <mxPoint x="-10" y="220" as="targetPoint" />
          </mxGeometry>
        </mxCell>
        <mxCell id="OE8cqUYUXqUJQJ2_gMQX-96" value="" style="endArrow=none;html=1;rounded=0;exitX=0.5;exitY=1;exitDx=0;exitDy=0;entryX=0;entryY=0.5;entryDx=0;entryDy=0;" edge="1" parent="1" source="C-vyLk0tnHw3VtMMgP7b-23" target="OE8cqUYUXqUJQJ2_gMQX-54">
          <mxGeometry relative="1" as="geometry">
            <mxPoint x="-170" y="220" as="sourcePoint" />
            <mxPoint x="-10" y="220" as="targetPoint" />
          </mxGeometry>
        </mxCell>
        <mxCell id="OE8cqUYUXqUJQJ2_gMQX-97" value="회사" style="shape=table;startSize=30;container=1;collapsible=1;childLayout=tableLayout;fixedRows=1;rowLines=0;fontStyle=1;align=center;resizeLast=1;html=1;" vertex="1" parent="1">
          <mxGeometry x="-460" y="10" width="120" height="60" as="geometry" />
        </mxCell>
        <mxCell id="OE8cqUYUXqUJQJ2_gMQX-98" value="" style="shape=tableRow;horizontal=0;startSize=0;swimlaneHead=0;swimlaneBody=0;fillColor=none;collapsible=0;dropTarget=0;points=[[0,0.5],[1,0.5]];portConstraint=eastwest;top=0;left=0;right=0;bottom=1;" vertex="1" parent="OE8cqUYUXqUJQJ2_gMQX-97">
          <mxGeometry y="30" width="120" height="30" as="geometry" />
        </mxCell>
        <mxCell id="OE8cqUYUXqUJQJ2_gMQX-99" value="PK" style="shape=partialRectangle;connectable=0;fillColor=none;top=0;left=0;bottom=0;right=0;fontStyle=1;overflow=hidden;whiteSpace=wrap;html=1;" vertex="1" parent="OE8cqUYUXqUJQJ2_gMQX-98">
          <mxGeometry width="30" height="30" as="geometry">
            <mxRectangle width="30" height="30" as="alternateBounds" />
          </mxGeometry>
        </mxCell>
        <mxCell id="OE8cqUYUXqUJQJ2_gMQX-100" value="회사명" style="shape=partialRectangle;connectable=0;fillColor=none;top=0;left=0;bottom=0;right=0;align=left;spacingLeft=6;fontStyle=5;overflow=hidden;whiteSpace=wrap;html=1;" vertex="1" parent="OE8cqUYUXqUJQJ2_gMQX-98">
          <mxGeometry x="30" width="90" height="30" as="geometry">
            <mxRectangle width="90" height="30" as="alternateBounds" />
          </mxGeometry>
        </mxCell>
        <mxCell id="OE8cqUYUXqUJQJ2_gMQX-110" value="" style="edgeStyle=entityRelationEdgeStyle;fontSize=12;html=1;endArrow=ERzeroToMany;endFill=1;rounded=0;entryX=0.5;entryY=0;entryDx=0;entryDy=0;exitX=0;exitY=0.5;exitDx=0;exitDy=0;" edge="1" parent="1" source="OE8cqUYUXqUJQJ2_gMQX-98" target="C-vyLk0tnHw3VtMMgP7b-23">
          <mxGeometry width="100" height="100" relative="1" as="geometry">
            <mxPoint x="-520" y="41" as="sourcePoint" />
            <mxPoint x="-110" y="170" as="targetPoint" />
          </mxGeometry>
        </mxCell>
        <mxCell id="OE8cqUYUXqUJQJ2_gMQX-117" value="" style="group" vertex="1" connectable="0" parent="1">
          <mxGeometry x="-110" y="190" width="90" height="120" as="geometry" />
        </mxCell>
        <mxCell id="OE8cqUYUXqUJQJ2_gMQX-18" value="부양가족" style="shape=table;startSize=30;container=1;collapsible=1;childLayout=tableLayout;fixedRows=1;rowLines=0;fontStyle=1;align=center;resizeLast=1;" vertex="1" parent="OE8cqUYUXqUJQJ2_gMQX-117">
          <mxGeometry width="90" height="120" as="geometry" />
        </mxCell>
        <mxCell id="OE8cqUYUXqUJQJ2_gMQX-19" value="" style="shape=partialRectangle;collapsible=0;dropTarget=0;pointerEvents=0;fillColor=none;points=[[0,0.5],[1,0.5]];portConstraint=eastwest;top=0;left=0;right=0;bottom=1;" vertex="1" parent="OE8cqUYUXqUJQJ2_gMQX-18">
          <mxGeometry y="30" width="90" height="30" as="geometry" />
        </mxCell>
        <mxCell id="OE8cqUYUXqUJQJ2_gMQX-20" value="PK" style="shape=partialRectangle;overflow=hidden;connectable=0;fillColor=none;top=0;left=0;bottom=0;right=0;fontStyle=1;" vertex="1" parent="OE8cqUYUXqUJQJ2_gMQX-19">
          <mxGeometry width="30" height="30" as="geometry">
            <mxRectangle width="30" height="30" as="alternateBounds" />
          </mxGeometry>
        </mxCell>
        <mxCell id="OE8cqUYUXqUJQJ2_gMQX-21" value="이름" style="shape=partialRectangle;overflow=hidden;connectable=0;fillColor=none;top=0;left=0;bottom=0;right=0;align=left;spacingLeft=6;fontStyle=5;" vertex="1" parent="OE8cqUYUXqUJQJ2_gMQX-19">
          <mxGeometry x="30" width="60" height="30" as="geometry">
            <mxRectangle width="60" height="30" as="alternateBounds" />
          </mxGeometry>
        </mxCell>
        <mxCell id="OE8cqUYUXqUJQJ2_gMQX-22" value="" style="shape=partialRectangle;collapsible=0;dropTarget=0;pointerEvents=0;fillColor=none;points=[[0,0.5],[1,0.5]];portConstraint=eastwest;top=0;left=0;right=0;bottom=0;" vertex="1" parent="OE8cqUYUXqUJQJ2_gMQX-18">
          <mxGeometry y="60" width="90" height="30" as="geometry" />
        </mxCell>
        <mxCell id="OE8cqUYUXqUJQJ2_gMQX-23" value="" style="shape=partialRectangle;overflow=hidden;connectable=0;fillColor=none;top=0;left=0;bottom=0;right=0;" vertex="1" parent="OE8cqUYUXqUJQJ2_gMQX-22">
          <mxGeometry width="30" height="30" as="geometry">
            <mxRectangle width="30" height="30" as="alternateBounds" />
          </mxGeometry>
        </mxCell>
        <mxCell id="OE8cqUYUXqUJQJ2_gMQX-24" value="나이" style="shape=partialRectangle;overflow=hidden;connectable=0;fillColor=none;top=0;left=0;bottom=0;right=0;align=left;spacingLeft=6;" vertex="1" parent="OE8cqUYUXqUJQJ2_gMQX-22">
          <mxGeometry x="30" width="60" height="30" as="geometry">
            <mxRectangle width="60" height="30" as="alternateBounds" />
          </mxGeometry>
        </mxCell>
        <mxCell id="OE8cqUYUXqUJQJ2_gMQX-115" value="" style="shape=partialRectangle;overflow=hidden;connectable=0;fillColor=none;top=0;left=0;bottom=0;right=0;" vertex="1" parent="OE8cqUYUXqUJQJ2_gMQX-117">
          <mxGeometry y="90" width="30" height="30" as="geometry">
            <mxRectangle width="30" height="30" as="alternateBounds" />
          </mxGeometry>
        </mxCell>
        <mxCell id="OE8cqUYUXqUJQJ2_gMQX-116" value="관계" style="shape=partialRectangle;overflow=hidden;connectable=0;fillColor=none;top=0;left=0;bottom=0;right=0;align=left;spacingLeft=6;" vertex="1" parent="OE8cqUYUXqUJQJ2_gMQX-117">
          <mxGeometry x="30" y="90" width="60" height="30" as="geometry">
            <mxRectangle width="60" height="30" as="alternateBounds" />
          </mxGeometry>
        </mxCell>
        <mxCell id="OE8cqUYUXqUJQJ2_gMQX-132" value="회사" style="rounded=0;whiteSpace=wrap;html=1;" vertex="1" parent="1">
          <mxGeometry x="-1180" y="310" width="120" height="60" as="geometry" />
        </mxCell>
        <mxCell id="OE8cqUYUXqUJQJ2_gMQX-133" value="부서" style="rounded=0;whiteSpace=wrap;html=1;" vertex="1" parent="1">
          <mxGeometry x="-1290" y="580" width="120" height="60" as="geometry" />
        </mxCell>
        <mxCell id="OE8cqUYUXqUJQJ2_gMQX-135" value="직원" style="rounded=0;whiteSpace=wrap;html=1;" vertex="1" parent="1">
          <mxGeometry x="-1280" y="830" width="120" height="60" as="geometry" />
        </mxCell>
        <mxCell id="OE8cqUYUXqUJQJ2_gMQX-136" value="부양가족" style="shape=ext;margin=3;double=1;whiteSpace=wrap;html=1;align=center;" vertex="1" parent="1">
          <mxGeometry x="-810" y="840" width="100" height="40" as="geometry" />
        </mxCell>
        <mxCell id="OE8cqUYUXqUJQJ2_gMQX-138" value="부양" style="shape=rhombus;double=1;perimeter=rhombusPerimeter;whiteSpace=wrap;html=1;align=center;" vertex="1" parent="1">
          <mxGeometry x="-1060" y="830" width="120" height="60" as="geometry" />
        </mxCell>
        <mxCell id="OE8cqUYUXqUJQJ2_gMQX-143" value="" style="edgeStyle=entityRelationEdgeStyle;fontSize=12;html=1;endArrow=ERzeroToMany;endFill=1;rounded=0;exitX=1;exitY=0.5;exitDx=0;exitDy=0;entryX=0;entryY=0.5;entryDx=0;entryDy=0;" edge="1" parent="1" source="OE8cqUYUXqUJQJ2_gMQX-138" target="OE8cqUYUXqUJQJ2_gMQX-136">
          <mxGeometry width="100" height="100" relative="1" as="geometry">
            <mxPoint x="-660" y="680" as="sourcePoint" />
            <mxPoint x="-560" y="580" as="targetPoint" />
          </mxGeometry>
        </mxCell>
        <mxCell id="OE8cqUYUXqUJQJ2_gMQX-144" value="" style="endArrow=none;html=1;rounded=0;exitX=1;exitY=0.5;exitDx=0;exitDy=0;entryX=0;entryY=0.5;entryDx=0;entryDy=0;" edge="1" parent="1" source="OE8cqUYUXqUJQJ2_gMQX-135" target="OE8cqUYUXqUJQJ2_gMQX-138">
          <mxGeometry relative="1" as="geometry">
            <mxPoint x="-550" y="620" as="sourcePoint" />
            <mxPoint x="-390" y="620" as="targetPoint" />
          </mxGeometry>
        </mxCell>
        <mxCell id="OE8cqUYUXqUJQJ2_gMQX-146" value="직원번호" style="ellipse;whiteSpace=wrap;html=1;" vertex="1" parent="1">
          <mxGeometry x="-1340" y="970" width="90" height="50" as="geometry" />
        </mxCell>
        <mxCell id="OE8cqUYUXqUJQJ2_gMQX-147" value="직원이름" style="ellipse;whiteSpace=wrap;html=1;" vertex="1" parent="1">
          <mxGeometry x="-1230" y="965" width="80" height="50" as="geometry" />
        </mxCell>
        <mxCell id="OE8cqUYUXqUJQJ2_gMQX-148" value="직책" style="ellipse;whiteSpace=wrap;html=1;" vertex="1" parent="1">
          <mxGeometry x="-1090" y="970" width="80" height="40" as="geometry" />
        </mxCell>
        <mxCell id="OE8cqUYUXqUJQJ2_gMQX-149" value="" style="endArrow=none;html=1;rounded=0;exitX=0.5;exitY=1;exitDx=0;exitDy=0;entryX=0.5;entryY=0;entryDx=0;entryDy=0;" edge="1" parent="1" source="OE8cqUYUXqUJQJ2_gMQX-135" target="OE8cqUYUXqUJQJ2_gMQX-147">
          <mxGeometry width="50" height="50" relative="1" as="geometry">
            <mxPoint x="-1020" y="710" as="sourcePoint" />
            <mxPoint x="-970" y="660" as="targetPoint" />
          </mxGeometry>
        </mxCell>
        <mxCell id="OE8cqUYUXqUJQJ2_gMQX-150" value="" style="endArrow=none;html=1;rounded=0;exitX=0.5;exitY=1;exitDx=0;exitDy=0;entryX=0.5;entryY=0;entryDx=0;entryDy=0;" edge="1" parent="1" source="OE8cqUYUXqUJQJ2_gMQX-135" target="OE8cqUYUXqUJQJ2_gMQX-148">
          <mxGeometry width="50" height="50" relative="1" as="geometry">
            <mxPoint x="-860" y="700" as="sourcePoint" />
            <mxPoint x="-810" y="650" as="targetPoint" />
          </mxGeometry>
        </mxCell>
        <mxCell id="OE8cqUYUXqUJQJ2_gMQX-151" value="" style="endArrow=none;html=1;rounded=0;exitX=0.5;exitY=1;exitDx=0;exitDy=0;entryX=0.5;entryY=0;entryDx=0;entryDy=0;" edge="1" parent="1" source="OE8cqUYUXqUJQJ2_gMQX-135" target="OE8cqUYUXqUJQJ2_gMQX-146">
          <mxGeometry width="50" height="50" relative="1" as="geometry">
            <mxPoint x="-1020" y="710" as="sourcePoint" />
            <mxPoint x="-970" y="660" as="targetPoint" />
          </mxGeometry>
        </mxCell>
        <mxCell id="OE8cqUYUXqUJQJ2_gMQX-152" value="이름" style="ellipse;whiteSpace=wrap;html=1;" vertex="1" parent="1">
          <mxGeometry x="-850" y="920" width="70" height="40" as="geometry" />
        </mxCell>
        <mxCell id="OE8cqUYUXqUJQJ2_gMQX-153" value="나이" style="ellipse;whiteSpace=wrap;html=1;" vertex="1" parent="1">
          <mxGeometry x="-740" y="910" width="80" height="40" as="geometry" />
        </mxCell>
        <mxCell id="OE8cqUYUXqUJQJ2_gMQX-154" value="" style="endArrow=none;html=1;rounded=0;exitX=0.5;exitY=1;exitDx=0;exitDy=0;entryX=0.5;entryY=0;entryDx=0;entryDy=0;" edge="1" parent="1" source="OE8cqUYUXqUJQJ2_gMQX-136" target="OE8cqUYUXqUJQJ2_gMQX-153">
          <mxGeometry width="50" height="50" relative="1" as="geometry">
            <mxPoint x="-1000" y="710" as="sourcePoint" />
            <mxPoint x="-950" y="660" as="targetPoint" />
          </mxGeometry>
        </mxCell>
        <mxCell id="OE8cqUYUXqUJQJ2_gMQX-155" value="" style="endArrow=none;html=1;rounded=0;exitX=0.5;exitY=1;exitDx=0;exitDy=0;entryX=0.5;entryY=0;entryDx=0;entryDy=0;" edge="1" parent="1" source="OE8cqUYUXqUJQJ2_gMQX-136" target="OE8cqUYUXqUJQJ2_gMQX-152">
          <mxGeometry width="50" height="50" relative="1" as="geometry">
            <mxPoint x="-1000" y="710" as="sourcePoint" />
            <mxPoint x="-950" y="660" as="targetPoint" />
          </mxGeometry>
        </mxCell>
        <mxCell id="OE8cqUYUXqUJQJ2_gMQX-156" value="부서이름" style="ellipse;whiteSpace=wrap;html=1;" vertex="1" parent="1">
          <mxGeometry x="-1320" y="680" width="90" height="40" as="geometry" />
        </mxCell>
        <mxCell id="OE8cqUYUXqUJQJ2_gMQX-157" value="부서번호" style="ellipse;whiteSpace=wrap;html=1;" vertex="1" parent="1">
          <mxGeometry x="-1420" y="670" width="90" height="40" as="geometry" />
        </mxCell>
        <mxCell id="OE8cqUYUXqUJQJ2_gMQX-158" value="" style="endArrow=none;html=1;rounded=0;exitX=0.5;exitY=0;exitDx=0;exitDy=0;entryX=0.5;entryY=1;entryDx=0;entryDy=0;" edge="1" parent="1" source="OE8cqUYUXqUJQJ2_gMQX-156" target="OE8cqUYUXqUJQJ2_gMQX-133">
          <mxGeometry width="50" height="50" relative="1" as="geometry">
            <mxPoint x="-1275" y="670" as="sourcePoint" />
            <mxPoint x="-980" y="560" as="targetPoint" />
          </mxGeometry>
        </mxCell>
        <mxCell id="OE8cqUYUXqUJQJ2_gMQX-159" value="" style="endArrow=none;html=1;rounded=0;exitX=0.5;exitY=0;exitDx=0;exitDy=0;entryX=0.5;entryY=1;entryDx=0;entryDy=0;" edge="1" parent="1" source="OE8cqUYUXqUJQJ2_gMQX-157" target="OE8cqUYUXqUJQJ2_gMQX-133">
          <mxGeometry width="50" height="50" relative="1" as="geometry">
            <mxPoint x="-1375" y="660" as="sourcePoint" />
            <mxPoint x="-1230" y="660" as="targetPoint" />
          </mxGeometry>
        </mxCell>
        <mxCell id="OE8cqUYUXqUJQJ2_gMQX-160" value="운영" style="shape=rhombus;perimeter=rhombusPerimeter;whiteSpace=wrap;html=1;align=center;" vertex="1" parent="1">
          <mxGeometry x="-1180" y="450" width="120" height="60" as="geometry" />
        </mxCell>
        <mxCell id="OE8cqUYUXqUJQJ2_gMQX-162" value="" style="endArrow=none;html=1;rounded=0;exitX=0.5;exitY=0;exitDx=0;exitDy=0;entryX=0.5;entryY=1;entryDx=0;entryDy=0;" edge="1" parent="1" source="OE8cqUYUXqUJQJ2_gMQX-160" target="OE8cqUYUXqUJQJ2_gMQX-132">
          <mxGeometry width="50" height="50" relative="1" as="geometry">
            <mxPoint x="-1020" y="560" as="sourcePoint" />
            <mxPoint x="-970" y="510" as="targetPoint" />
          </mxGeometry>
        </mxCell>
        <mxCell id="OE8cqUYUXqUJQJ2_gMQX-163" value="" style="edgeStyle=entityRelationEdgeStyle;fontSize=12;html=1;endArrow=ERzeroToMany;endFill=1;rounded=0;exitX=0.5;exitY=1;exitDx=0;exitDy=0;entryX=0.5;entryY=0;entryDx=0;entryDy=0;" edge="1" parent="1" source="OE8cqUYUXqUJQJ2_gMQX-160" target="OE8cqUYUXqUJQJ2_gMQX-133">
          <mxGeometry width="100" height="100" relative="1" as="geometry">
            <mxPoint x="-1230" y="540" as="sourcePoint" />
            <mxPoint x="-960" y="360" as="targetPoint" />
          </mxGeometry>
        </mxCell>
        <mxCell id="OE8cqUYUXqUJQJ2_gMQX-165" value="근무" style="shape=rhombus;perimeter=rhombusPerimeter;whiteSpace=wrap;html=1;align=center;" vertex="1" parent="1">
          <mxGeometry x="-1280" y="720" width="120" height="60" as="geometry" />
        </mxCell>
        <mxCell id="OE8cqUYUXqUJQJ2_gMQX-166" value="" style="endArrow=none;html=1;rounded=0;exitX=0.5;exitY=0;exitDx=0;exitDy=0;entryX=0.5;entryY=1;entryDx=0;entryDy=0;" edge="1" parent="1" source="OE8cqUYUXqUJQJ2_gMQX-165" target="OE8cqUYUXqUJQJ2_gMQX-133">
          <mxGeometry width="50" height="50" relative="1" as="geometry">
            <mxPoint x="-1050" y="800" as="sourcePoint" />
            <mxPoint x="-1000" y="750" as="targetPoint" />
          </mxGeometry>
        </mxCell>
        <mxCell id="OE8cqUYUXqUJQJ2_gMQX-167" value="" style="edgeStyle=entityRelationEdgeStyle;fontSize=12;html=1;endArrow=ERzeroToMany;endFill=1;rounded=0;exitX=0.5;exitY=1;exitDx=0;exitDy=0;entryX=0.5;entryY=0;entryDx=0;entryDy=0;" edge="1" parent="1" source="OE8cqUYUXqUJQJ2_gMQX-165" target="OE8cqUYUXqUJQJ2_gMQX-135">
          <mxGeometry width="100" height="100" relative="1" as="geometry">
            <mxPoint x="-1070" y="820" as="sourcePoint" />
            <mxPoint x="-970" y="720" as="targetPoint" />
          </mxGeometry>
        </mxCell>
        <mxCell id="OE8cqUYUXqUJQJ2_gMQX-168" value="기간" style="ellipse;whiteSpace=wrap;html=1;" vertex="1" parent="1">
          <mxGeometry x="-1110" y="690" width="80" height="40" as="geometry" />
        </mxCell>
        <mxCell id="OE8cqUYUXqUJQJ2_gMQX-169" value="직책" style="ellipse;whiteSpace=wrap;html=1;" vertex="1" parent="1">
          <mxGeometry x="-1110" y="750" width="80" height="40" as="geometry" />
        </mxCell>
        <mxCell id="OE8cqUYUXqUJQJ2_gMQX-170" value="" style="endArrow=none;html=1;rounded=0;exitX=1;exitY=0.5;exitDx=0;exitDy=0;entryX=0;entryY=0.5;entryDx=0;entryDy=0;" edge="1" parent="1" source="OE8cqUYUXqUJQJ2_gMQX-165" target="OE8cqUYUXqUJQJ2_gMQX-168">
          <mxGeometry width="50" height="50" relative="1" as="geometry">
            <mxPoint x="-1050" y="800" as="sourcePoint" />
            <mxPoint x="-1000" y="750" as="targetPoint" />
          </mxGeometry>
        </mxCell>
        <mxCell id="OE8cqUYUXqUJQJ2_gMQX-171" value="" style="endArrow=none;html=1;rounded=0;exitX=1;exitY=0.5;exitDx=0;exitDy=0;entryX=0;entryY=0.5;entryDx=0;entryDy=0;" edge="1" parent="1" source="OE8cqUYUXqUJQJ2_gMQX-165" target="OE8cqUYUXqUJQJ2_gMQX-169">
          <mxGeometry width="50" height="50" relative="1" as="geometry">
            <mxPoint x="-1050" y="800" as="sourcePoint" />
            <mxPoint x="-1000" y="750" as="targetPoint" />
          </mxGeometry>
        </mxCell>
      </root>
    </mxGraphModel>
  </diagram>
</mxfile>
